<svg height="34" viewBox="0 0 162 34" width="162" xmlns="http://www.w3.org/2000/svg" xmlns:xlink="http://www.w3.org/1999/xlink"><defs><path id="a" d="m10.6 5.84c5.4 0 9.08 3.4 9.08 8.8v12.36h-5.64v-2.08c-1.48 1.68-3.84 2.56-6.08 2.56-4.4 0-7.8-2.64-7.8-6.6 0-4.08 3.8-6.88 8.6-6.88 1.68 0 3.52.36 5.28 1.04v-.4c0-2.2-1.36-4.12-4.76-4.12-1.92 0-3.72.64-5.36 1.48l-1.96-3.88c2.92-1.48 5.76-2.28 8.64-2.28zm-1.32 17.6c2.24 0 4.36-1.04 4.76-2.96v-1.92c-1.32-.48-2.84-.76-4.44-.76-2.12 0-3.8 1.24-3.8 2.92s1.48 2.72 3.48 2.72zm19.46-13.28c1.36-2.68 3.92-4.32 7.08-4.32v4.92c-4.32 0-7.08 2.48-7.08 6.36v9.88h-5.84v-20.68h5.84zm19.62 11.72 1.4 3.8c-1.2 1.08-3.08 1.8-4.76 1.8-3.64 0-6.2-2.6-6.2-6.32v-10.12h-2.84v-4.72h2.84v-5.68h5.6v5.68h4.48v4.72h-4.48v9.2c0 1.36.88 2.32 1.96 2.32.8 0 1.6-.28 2-.68zm16.1-16.04c5.52 0 9.52 4.48 9.52 10.8 0 6.36-4 10.84-9.52 10.84-2.88 0-5.28-1.24-6.92-3.4v9.8h-5.84v-27.56h5.84v2.88c1.64-2.12 4.04-3.36 6.92-3.36zm-1.68 16.72c3.24 0 5.52-2.44 5.52-5.92 0-3.44-2.28-5.88-5.52-5.88-2.84 0-4.92 2.08-5.24 5.08v1.6c.32 3.04 2.4 5.12 5.24 5.12zm19.46-12.4c1.36-2.68 3.92-4.32 7.08-4.32v4.92c-4.32 0-7.08 2.48-7.08 6.36v9.88h-5.84v-20.68h5.84zm18.42 17.32c-6.16 0-11.32-4.96-11.32-10.84s5.16-10.8 11.32-10.8c6.12 0 11.24 4.92 11.24 10.8s-5.12 10.84-11.24 10.84zm0-4.92c3.08 0 5.68-2.72 5.68-5.92s-2.6-5.88-5.68-5.88c-3.12 0-5.72 2.68-5.72 5.88s2.6 5.92 5.72 5.92zm26.26-16.72c5.52 0 9.52 4.48 9.52 10.8 0 6.36-4 10.84-9.52 10.84-2.88 0-5.28-1.24-6.92-3.4v9.8h-5.84v-27.56h5.84v2.88c1.64-2.12 4.04-3.36 6.92-3.36zm-1.68 16.72c3.24 0 5.52-2.44 5.52-5.92 0-3.44-2.28-5.88-5.52-5.88-2.84 0-4.92 2.08-5.24 5.08v1.6c.32 3.04 2.4 5.12 5.24 5.12zm26.38-16.72c5.52 0 9.52 4.48 9.52 10.8 0 6.36-4 10.84-9.52 10.84-2.88 0-5.28-1.24-6.92-3.4v9.8h-5.84v-27.56h5.84v2.88c1.64-2.12 4.04-3.36 6.92-3.36zm-1.68 16.72c3.24 0 5.52-2.44 5.52-5.92 0-3.44-2.28-5.88-5.52-5.88-2.84 0-4.92 2.08-5.24 5.08v1.6c.32 3.04 2.4 5.12 5.24 5.12z"/></defs><g fill="none"><use fill="#242424" xlink:href="#a"/><use fill="#d8d8d8" xlink:href="#a"/></g></svg>